HIERARCHY
ROOT root
{
	OFFSET 0.000000 0.000000 0.000000
	CHANNELS 6 Xposition Yposition Zposition Zrotation Yrotation Xrotation
	JOINT lhip
	{
		OFFSET 0.058581 -0.082280 -0.017664
		CHANNELS 3 Zrotation Yrotation Xrotation
		JOINT lknee
		{
			OFFSET 0.043451 -0.386469 0.008037
			CHANNELS 3 Zrotation Yrotation Xrotation
			JOINT lankle
			{
				OFFSET -0.014790 -0.426874 -0.037428
				CHANNELS 3 Zrotation Yrotation Xrotation
				JOINT ltoe
				{
					OFFSET 0.041054 -0.060286 0.122042
					CHANNELS 3 Zrotation Yrotation Xrotation
					End Site
					{
						OFFSET 0.000000 0.000000 0.000000
					}
				}
			}
		}
	}
	JOINT rhip
	{
		OFFSET -0.060310 -0.090513 -0.013543
		CHANNELS 3 Zrotation Yrotation Xrotation
		JOINT rknee
		{
			OFFSET -0.043257 -0.383688 -0.004843
			CHANNELS 3 Zrotation Yrotation Xrotation
			JOINT rankle
			{
				OFFSET 0.019056 -0.420046 -0.034562
				CHANNELS 3 Zrotation Yrotation Xrotation
				JOINT rtoe
				{
					OFFSET -0.034840 -0.062106 0.130323
					CHANNELS 3 Zrotation Yrotation Xrotation
					End Site
					{
						OFFSET 0.000000 0.000000 0.000000
					}
				}
			}
		}
	}
	JOINT lowerback
	{
		OFFSET 0.004439 0.124404 -0.038385
		CHANNELS 3 Zrotation Yrotation Xrotation
		JOINT upperback
		{
			OFFSET 0.004488 0.137956 0.026820
			CHANNELS 3 Zrotation Yrotation Xrotation
			JOINT chest
			{
				OFFSET -0.002265 0.056032 0.002855
				CHANNELS 3 Zrotation Yrotation Xrotation
				JOINT lowerneck
				{
					OFFSET -0.013390 0.211636 -0.033468
					CHANNELS 3 Zrotation Yrotation Xrotation
					JOINT upperneck
					{
						OFFSET 0.010113 0.088937 0.050410
						CHANNELS 3 Zrotation Yrotation Xrotation
						End Site
						{
							OFFSET 0.000000 0.000000 0.000000
						}
					}
				}
				JOINT lclavicle
				{
					OFFSET 0.071702 0.114000 -0.018898
					CHANNELS 3 Zrotation Yrotation Xrotation
					JOINT lshoulder
					{
						OFFSET 0.122921 0.045205 -0.019046
						CHANNELS 3 Zrotation Yrotation Xrotation
						JOINT lelbow
						{
							OFFSET 0.255332 -0.015649 -0.022946
							CHANNELS 3 Zrotation Yrotation Xrotation
							JOINT lwrist
							{
								OFFSET 0.265709 0.012698 -0.007375
								CHANNELS 3 Zrotation Yrotation Xrotation
								End Site
								{
									OFFSET 0.000000 0.000000 0.000000
								}
							}
						}
					}
				}
				JOINT rclavicle
				{
					OFFSET -0.082954 0.112472 -0.023707
					CHANNELS 3 Zrotation Yrotation Xrotation
					JOINT rshoulder
					{
						OFFSET -0.113228 0.046853 -0.008472
						CHANNELS 3 Zrotation Yrotation Xrotation
						JOINT relbow
						{
							OFFSET -0.260127 -0.014369 -0.031269
							CHANNELS 3 Zrotation Yrotation Xrotation
							JOINT rwrist
							{
								OFFSET -0.269108 0.006794 -0.006027
								CHANNELS 3 Zrotation Yrotation Xrotation
								End Site
								{
									OFFSET 0.000000 0.000000 0.000000
								}
							}
						}
					}
				}
			}
		}
	}
}
MOTION
Frames: 5
Frame Time: 0.033333
-0.913317 1.303817 0.983333 90.747518 -1.274216 77.953634 -6.530386 0.729508 9.100322 -2.126115 -11.000967 6.352094 4.311934 9.223372 -13.182875 0.000000 -0.000000 0.000000 -1.743398 2.322513 -11.123560 -2.383012 -3.587186 64.167129 4.207175 -8.608726 -8.972285 0.000000 -0.000000 0.000000 0.514287 -0.947581 13.779406 -0.230414 0.732567 1.885591 -1.324141 1.545555 0.779592 1.854540 -0.169414 -5.018061 -3.768209 -2.638921 0.957989 -26.977075 -0.259611 -0.776526 -60.631272 0.724661 7.991191 7.206626 -3.898125 -0.256669 -5.090321 -7.370583 -10.614486 24.570241 10.748261 -3.844822 52.193618 19.868137 13.110013 -19.434171 30.805587 -15.751212 8.051440 9.903437 -16.467837 
-0.878371 1.305100 0.983750 92.459296 -0.622948 77.521431 -5.586239 1.501488 12.622355 -2.043465 -12.990262 4.753733 3.500864 9.121275 -14.273087 0.000000 -0.000000 0.000000 -2.272046 3.371238 -15.240310 -1.552277 -5.907490 61.079070 5.063511 -8.331241 -12.899853 0.000000 -0.000000 0.000000 0.613697 -2.750225 15.187567 0.173274 -0.121920 1.487922 -1.105746 -0.238484 1.189601 1.567938 2.299408 -6.945038 -3.971989 -2.464131 1.808789 -28.391068 -3.045487 1.986277 -58.652903 -4.641205 8.562371 7.787790 -5.745955 -2.614835 -4.666701 -7.878714 -10.716729 26.382568 10.628434 -2.944096 52.904311 16.348341 14.138335 -18.449750 30.241370 -15.099105 7.300772 10.541341 -15.572365 
-0.843539 1.306388 0.982299 93.965555 0.149967 77.823680 -4.185531 2.487958 14.912254 -1.942066 -14.358656 3.894089 3.423281 8.624977 -15.131874 0.000000 -0.000000 0.000000 -2.373926 3.948581 -19.261556 -0.949584 -7.033855 55.842737 5.024120 -8.276454 -13.995108 0.000000 -0.000000 0.000000 0.570309 -4.140366 14.706306 0.347844 -0.965720 1.972591 -1.195552 -1.492062 -0.390861 2.142126 1.390162 -3.189059 -2.373771 -0.022834 1.429953 -27.939870 -5.740693 3.688634 -57.248723 -9.015209 8.547447 8.658443 -5.744469 -6.825554 -2.604301 -7.896684 -9.179919 30.131135 11.363747 0.879719 51.159843 11.377135 13.650391 -17.499278 29.200326 -15.351983 7.159818 10.595737 -14.350551 
-0.801217 1.307299 0.979951 95.691315 0.059749 78.328607 -3.581598 3.144493 17.764330 -1.982996 -15.744187 2.958376 3.295674 8.497230 -16.461107 0.000000 -0.000000 0.000000 -3.175958 3.867421 -22.936292 -1.422036 -7.634148 47.188959 5.849608 -8.491712 -14.443898 0.000000 -0.000000 0.000000 -0.163987 -4.964313 14.808921 0.646378 -1.723087 2.300297 -0.763316 -2.436545 -0.964270 1.477361 1.834854 -1.776481 -1.429760 0.360078 0.526706 -26.006582 -7.649509 1.406271 -55.785137 -15.023665 8.986601 7.637188 -4.412638 -8.022949 -3.661432 -8.352527 -8.692528 30.834982 8.968330 1.601847 53.499711 5.490530 14.708506 -16.990328 28.007992 -13.173630 8.960807 10.211134 -13.739081 
-0.772984 1.306471 0.977993 96.573471 0.200574 78.241363 -2.763781 3.764578 19.942590 -2.078432 -16.116872 2.367350 1.898145 8.148009 -17.260221 0.000000 -0.000000 0.000000 -2.885440 3.810683 -23.345796 -1.715213 -7.506458 40.704263 6.476406 -8.970921 -14.582621 0.000000 -0.000000 0.000000 -0.348943 -5.503602 15.103726 0.965815 -2.334553 2.574061 -0.136460 -2.846569 -0.196437 0.244897 3.640132 -3.492055 -1.584348 -0.301887 0.206955 -25.430100 -8.365142 0.086967 -54.565934 -18.942399 8.759941 7.559559 -5.328635 -8.368241 -4.285526 -8.107607 -9.813271 29.764222 7.015405 0.777619 55.631901 3.026602 15.511561 -16.066239 26.302734 -10.541768 9.973193 10.033226 -13.561043 
